name Walk01_grf.mot																		
datacolumns 19																		
datarows 67																		
range 0.392 0.458																		
endheader																		
time	1_ground_force_vx	1_ground_force_vy	1_ground_force_vz	1_ground_force_px	1_ground_force_py	1_ground_force_pz	1_ground_torque_x	1_ground_torque_y	1_ground_torque_z	2_ground_force_vx	2_ground_force_vy	2_ground_force_vz	2_ground_force_px	2_ground_force_py	2_ground_force_pz	2_ground_torque_x	2_ground_torque_y	2_ground_torque_z
0.392	-46.615601	614.657898	-31.145477	0.173225	0	0.259525	-0.011369	0.149904	-0.007596	0	0	0	0.787976	0	0.149306	0	0	0
0.393	-45.852661	613.437195	-30.992889	0.173414	0	0.259552	-0.00602	0.080536	-0.004069	0	0	0	0.787976	0	0.149306	0	0	0
0.394	-46.310425	611.60614	-31.603241	0.174386	0	0.259726	-0.008831	0.116624	-0.006026	0	0	0	0.787976	0	0.149306	0	0	0
0.395	-46.005249	610.690613	-31.603241	0.174786	0	0.259532	0.00111	-0.014731	0.000762	0	0	0	0.787976	0	0.149306	0	0	0
0.396	-45.547485	610.080261	-31.908417	0.17558	0	0.259565	-0.015028	0.201297	-0.010528	0	0	0	0.787976	0	0.149306	0	0	0
0.397	-45.852661	608.249207	-31.450653	0.176104	0	0.25965	-0.011303	0.149941	-0.007753	0	0	0	0.787976	0	0.149306	0	0	0
0.398	-45.547485	608.249207	-32.36618	0.176723	0	0.260129	-0.025347	0.338488	-0.018012	0	0	0	0.787976	0	0.149306	0	0	0
0.399	-44.937134	607.333679	-31.603241	0.177122	0	0.259843	-0.010098	0.13648	-0.007102	0	0	0	0.787976	0	0.149306	0	0	0
0.4	-45.547485	604.281921	-32.823944	0.177737	0	0.25991	-0.029955	0.397421	-0.021588	0	0	0	0.787976	0	0.149306	0	0	0
0.401	-44.631958	606.112976	-32.671356	0.178087	0	0.259858	-0.012729	0.172867	-0.009318	0	0	0	0.787976	0	0.149306	0	0	0
0.402	-44.784546	603.67157	-32.823944	0.178207	0	0.26009	-0.018755	0.252804	-0.013746	0	0	0	0.787976	0	0.149306	0	0	0
0.403	-44.47937	602.756042	-32.823944	0.1788	0	0.260259	-0.03331	0.451392	-0.024581	0	0	0	0.787976	0	0.149306	0	0	0
0.404	-44.021606	602.756042	-32.976532	0.179252	0	0.259859	-0.02993	0.409809	-0.02242	0	0	0	0.787976	0	0.149306	0	0	0
0.405	-43.716431	601.230164	-32.213593	0.179543	0	0.259924	-0.021294	0.29286	-0.015691	0	0	0	0.787976	0	0.149306	0	0	0
0.406	-43.869019	600.924988	-32.213593	0.18054	0	0.260372	-0.014454	0.197998	-0.010614	0	0	0	0.787976	0	0.149306	0	0	0
0.407	-43.411255	600.00946	-32.671356	0.179757	0	0.260351	-0.02138	0.295503	-0.016091	0	0	0	0.787976	0	0.149306	0	0	0
0.408	-42.34314	598.788757	-32.671356	0.181649	0	0.260377	-0.018517	0.26186	-0.014288	0	0	0	0.787976	0	0.149306	0	0	0
0.409	-43.716431	597.87323	-31.603241	0.181778	0	0.260462	-0.022638	0.309597	-0.016365	0	0	0	0.787976	0	0.149306	0	0	0
0.41	-42.190552	598.483582	-32.213593	0.182644	0	0.260835	-0.006641	0.09421	-0.005071	0	0	0	0.787976	0	0.149306	0	0	0
0.411	-42.495728	597.568054	-31.908417	0.182478	0	0.260298	-0.017249	0.242547	-0.012951	0	0	0	0.787976	0	0.149306	0	0	0
0.412	-42.190552	596.042175	-32.061005	0.183401	0	0.260766	-0.013199	0.186468	-0.01003	0	0	0	0.787976	0	0.149306	0	0	0
0.413	-42.190552	595.431824	-31.603241	0.183612	0	0.260797	-0.031756	0.44817	-0.023787	0	0	0	0.787976	0	0.149306	0	0	0
0.414	-42.037964	595.431824	-31.450653	0.184221	0	0.260395	-0.027185	0.385059	-0.020339	0	0	0	0.787976	0	0.149306	0	0	0
0.415	-41.732788	595.126648	-31.603241	0.185245	0	0.260624	-0.031768	0.453024	-0.024057	0	0	0	0.787976	0	0.149306	0	0	0
0.416	-41.885376	594.516296	-31.145477	0.185432	0	0.261202	-0.030163	0.428128	-0.022429	0	0	0	0.787976	0	0.149306	0	0	0
0.417	-39.901733	595.126648	-30.22995	0.18557	0	0.260703	-0.045679	0.681291	-0.034607	0	0	0	0.787976	0	0.149306	0	0	0
0.418	-40.969849	592.685242	-30.840302	0.186472	0	0.260666	-0.03223	0.466251	-0.024261	0	0	0	0.787976	0	0.149306	0	0	0
0.419	-40.512085	593.295593	-30.840302	0.186776	0	0.260767	-0.05771	0.845151	-0.043932	0	0	0	0.787976	0	0.149306	0	0	0
0.42	-40.206909	593.600769	-29.924774	0.187421	0	0.260773	-0.035275	0.520793	-0.026254	0	0	0	0.787976	0	0.149306	0	0	0
0.421	-40.206909	593.600769	-30.077362	0.188042	0	0.260666	-0.037983	0.560764	-0.028414	0	0	0	0.787976	0	0.149306	0	0	0
0.422	-39.291382	593.600769	-29.772186	0.188507	0	0.260664	-0.039348	0.594449	-0.029815	0	0	0	0.787976	0	0.149306	0	0	0
0.423	-39.138794	592.380066	-30.077362	0.188901	0	0.260782	-0.043458	0.65775	-0.033396	0	0	0	0.787976	0	0.149306	0	0	0
0.424	-38.986206	592.685242	-29.619598	0.18943	0	0.260637	-0.049954	0.759415	-0.037952	0	0	0	0.787976	0	0.149306	0	0	0
0.425	-39.291382	593.905945	-29.924774	0.190116	0	0.26103	-0.047305	0.715034	-0.036028	0	0	0	0.787976	0	0.149306	0	0	0
0.426	-38.68103	592.685242	-28.856659	0.19007	0	0.260605	-0.068453	1.048862	-0.051067	0	0	0	0.787976	0	0.149306	0	0	0
0.427	-38.223267	590.854187	-29.46701	0.190648	0	0.260708	-0.057705	0.892007	-0.044486	0	0	0	0.787976	0	0.149306	0	0	0
0.428	-38.070679	590.243835	-28.704071	0.190854	0	0.260963	-0.066561	1.031953	-0.050185	0	0	0	0.787976	0	0.149306	0	0	0
0.429	-37.918091	590.243835	-27.941132	0.19176	0	0.261408	-0.048042	0.747843	-0.035402	0	0	0	0.787976	0	0.149306	0	0	0
0.43	-37.612915	589.93866	-27.788544	0.192501	0	0.261411	-0.064559	1.012577	-0.047697	0	0	0	0.787976	0	0.149306	0	0	0
0.431	-37.612915	589.93866	-28.246307	0.193441	0	0.260987	-0.070822	1.11081	-0.053186	0	0	0	0.787976	0	0.149306	0	0	0
0.432	-36.5448	589.328308	-27.635956	0.193324	0	0.261371	-0.064721	1.043697	-0.048943	0	0	0	0.787976	0	0.149306	0	0	0
0.433	-37.002563	589.93866	-27.178192	0.19405	0	0.261208	-0.062546	0.997184	-0.04594	0	0	0	0.787976	0	0.149306	0	0	0
0.434	-36.697388	589.328308	-27.33078	0.194894	0	0.261865	-0.079105	1.270353	-0.058914	0	0	0	0.787976	0	0.149306	0	0	0
0.435	-36.392212	589.633484	-27.178192	0.195245	0	0.261023	-0.068121	1.103711	-0.050874	0	0	0	0.787976	0	0.149306	0	0	0
0.436	-36.392212	587.802429	-27.788544	0.195847	0	0.26164	-0.061311	0.990286	-0.046816	0	0	0	0.787976	0	0.149306	0	0	0
0.437	-36.392212	589.023132	-27.025604	0.196539	0	0.261185	-0.071065	1.150211	-0.052774	0	0	0	0.787976	0	0.149306	0	0	0
0.438	-35.934448	587.497253	-26.873016	0.196742	0	0.261754	-0.074191	1.212954	-0.055482	0	0	0	0.787976	0	0.149306	0	0	0
0.439	-35.324097	588.107605	-27.33078	0.197789	0	0.261065	-0.075748	1.261127	-0.058608	0	0	0	0.787976	0	0.149306	0	0	0
0.44	-34.866333	586.886902	-26.415253	0.19787	0	0.261629	-0.063304	1.06557	-0.04796	0	0	0	0.787976	0	0.149306	0	0	0
0.441	-35.171509	586.27655	-26.720428	0.198407	0	0.261669	-0.077133	1.285743	-0.0586	0	0	0	0.787976	0	0.149306	0	0	0
0.442	-35.629272	585.055847	-26.262665	0.199292	0	0.261583	-0.081158	1.332669	-0.059822	0	0	0	0.787976	0	0.149306	0	0	0
0.443	-34.561157	587.497253	-26.873016	0.200479	0	0.261867	-0.068768	1.168972	-0.053471	0	0	0	0.787976	0	0.149306	0	0	0
0.444	-34.713745	585.971375	-26.415253	0.199921	0	0.261487	-0.080763	1.36328	-0.061456	0	0	0	0.787976	0	0.149306	0	0	0
0.445	-33.950806	586.27655	-26.567841	0.200605	0	0.26145	-0.083941	1.449527	-0.065687	0	0	0	0.787976	0	0.149306	0	0	0
0.446	-33.340454	584.750671	-25.499725	0.200645	0	0.261834	-0.075128	1.317652	-0.05746	0	0	0	0.787976	0	0.149306	0	0	0
0.447	-33.64563	585.361023	-25.499725	0.201071	0	0.261546	-0.083534	1.45331	-0.06331	0	0	0	0.787976	0	0.149306	0	0	0
0.448	-33.950806	585.971375	-25.804901	0.202266	0	0.26138	-0.082275	1.42002	-0.062535	0	0	0	0.787976	0	0.149306	0	0	0
0.449	-33.187866	586.27655	-25.347137	0.202306	0	0.261573	-0.072914	1.288061	-0.055688	0	0	0	0.787976	0	0.149306	0	0	0
0.45	-33.187866	585.361023	-25.347137	0.202161	0	0.261867	-0.078981	1.393059	-0.060322	0	0	0	0.787976	0	0.149306	0	0	0
0.451	-33.64563	585.055847	-25.347137	0.204305	0	0.261787	-0.083725	1.455879	-0.063075	0	0	0	0.787976	0	0.149306	0	0	0
0.452	-32.88269	585.666199	-24.43161	0.204079	0	0.261946	-0.07478	1.331882	-0.055561	0	0	0	0.787976	0	0.149306	0	0	0
0.453	-31.967163	585.361023	-24.736786	0.204504	0	0.262081	-0.075898	1.389795	-0.058731	0	0	0	0.787976	0	0.149306	0	0	0
0.454	-32.88269	586.581726	-24.889374	0.205178	0	0.261939	-0.083276	1.485535	-0.063033	0	0	0	0.787976	0	0.149306	0	0	0
0.455	-32.88269	587.497253	-24.584198	0.205645	0	0.261519	-0.090359	1.6144	-0.067556	0	0	0	0.787976	0	0.149306	0	0	0
0.456	-32.730103	586.886902	-24.279022	0.206008	0	0.261696	-0.085183	1.527429	-0.063188	0	0	0	0.787976	0	0.149306	0	0	0
0.457	-32.88269	588.107605	-24.736786	0.206516	0	0.261879	-0.085409	1.527535	-0.064251	0	0	0	0.787976	0	0.149306	0	0	0
0.458	-32.119751	587.802429	-24.584198	0.207104	0	0.261792	-0.094178	1.723486	-0.072083	0	0	0	0.787976	0	0.149306	0	0	0
